<svg xmlns="http://www.w3.org/2000/svg" viewBox="0 0 512 512">
  <defs>
    <linearGradient id="g" x1="0" y1="0" x2="1" y2="1">
      <stop offset="0" stop-color="#2F6B4F"/>
      <stop offset="1" stop-color="#4E8F6B"/>
    </linearGradient>
  </defs>
  <rect width="512" height="512" rx="112" fill="url(#g)"/>
  <path d="M104 168c0-13 11-24 24-24h96l28 32h136c13 0 24 11 24 24v144c0 13-11 24-24 24H128c-13 0-24-11-24-24z" fill="#F4EAD2"/>
  <rect x="140" y="236" width="160" height="16" rx="8" fill="#2F6B4F" opacity=".55"/>
  <rect x="140" y="272" width="200" height="16" rx="8" fill="#2F6B4F" opacity=".35"/>
  <rect x="140" y="308" width="120" height="16" rx="8" fill="#2F6B4F" opacity=".35"/>
  <circle cx="356" cy="340" r="40" fill="#C0392B"/>
  <path d="M356 302c6-14 18-20 28-20-2 12-12 22-28 20z" fill="#24513C"/>
</svg>
